<?xml version="1.0" encoding="iso-8859-1"?>
<!-- Generator: Adobe Illustrator 19.0.0, SVG Export Plug-In . SVG Version: 6.00 Build 0)  -->
<svg xmlns="http://www.w3.org/2000/svg" xmlns:xlink="http://www.w3.org/1999/xlink" version="1.1" id="Layer_1" x="0px" y="0px" viewBox="0 0 497.848 497.848" style="enable-background:new 0 0 497.848 497.848;" xml:space="preserve" width="512px" height="512px">
<g>
	<g>
		<g>
			<path d="M488,160.924c0-19.368,5.68-26.344,5.656-26.344l4.192-4.184l-2.792-5.232C494.4,123.916,427.008,0.924,272,0.924     c-163.512,0-272,187.792-272,312C0,433.66,31.704,490.532,33.056,492.892l2.304,4.032h29.744L466.16,384.628l4.096-1.144     l1.336-4.032C472.584,376.46,496,305.756,496,264.924c0-22.992-2.552-45.656-4.808-65.656     C489.48,184.076,488,170.948,488,160.924z M16,312.924c0-41.448,13.024-89.856,36.224-135.384     C76.248,180.644,175.04,192.924,232,192.924h88.584c26.144,0,47.416,21.272,47.416,47.416c0,20.976-13.448,39.184-33.464,45.32     c-63.952,19.592-219.792,64.328-317.224,67.128C16.504,340.364,16,327.156,16,312.924z M457.712,370.38L62.896,480.924h-17.96     c-5.44-11.64-20.368-48.584-26.368-112.28c95.568-2.864,240.744-43.216,320.656-67.688c26.784-8.2,44.776-32.56,44.776-60.616     c0-34.968-28.448-63.416-63.416-63.416H232c-51.32,0-140.272-10.552-171.608-14.48C105.28,83.484,180.896,16.924,272,16.924     c129.512,0,193.76,91.24,206.536,111.736c-2.992,5.528-6.536,15.592-6.536,32.264c0,10.92,1.52,24.464,3.288,40.144     c2.216,19.576,4.712,41.76,4.712,63.856C480,297.876,462.648,354.828,457.712,370.38z" fill="#FFFFFF"/>
			<path d="M352,240.924c0-17.648-14.352-32-32-32s-32,14.352-32,32s14.352,32,32,32S352,258.572,352,240.924z M320,256.924     c-8.824,0-16-7.176-16-16c0-8.824,7.176-16,16-16c8.824,0,16,7.176,16,16C336,249.748,328.824,256.924,320,256.924z" fill="#FFFFFF"/>
			
				<rect x="156.687" y="120.92" transform="matrix(-0.7071 -0.7071 0.7071 -0.7071 195.6324 338.8736)" width="22.624" height="16" fill="#FFFFFF"/>
			
				<rect x="171.03" y="100.927" transform="matrix(-0.7071 -0.7071 0.7071 -0.7071 243.9166 318.8872)" width="33.944" height="16" fill="#FFFFFF"/>
			
				<rect x="185.374" y="80.931" transform="matrix(-0.7071 -0.7071 0.7071 -0.7071 292.1981 298.8941)" width="45.256" height="16" fill="#FFFFFF"/>
			<rect x="32" y="296.924" width="16" height="16" fill="#FFFFFF"/>
			<rect x="64" y="296.924" width="16" height="16" fill="#FFFFFF"/>
			<rect x="96" y="296.924" width="16" height="16" fill="#FFFFFF"/>
		</g>
	</g>
</g>
<g>
</g>
<g>
</g>
<g>
</g>
<g>
</g>
<g>
</g>
<g>
</g>
<g>
</g>
<g>
</g>
<g>
</g>
<g>
</g>
<g>
</g>
<g>
</g>
<g>
</g>
<g>
</g>
<g>
</g>
</svg>
